<svg xmlns="http://www.w3.org/2000/svg" xmlns:xlink="http://www.w3.org/1999/xlink" width="50" zoomAndPan="magnify" viewBox="0 0 37.5 37.499999" height="50" preserveAspectRatio="xMidYMid meet" version="1.0"><defs><g/><clipPath id="f93bc366b5"><path d="M 8.253906 2.109375 L 29.265625 2.109375 L 29.265625 23.121094 L 8.253906 23.121094 Z M 8.253906 2.109375 " clip-rule="nonzero"/></clipPath></defs><g clip-path="url(#f93bc366b5)"><path fill="#ffffff" d="M 27.398438 2.109375 L 10.097656 2.109375 C 9.851562 2.109375 9.613281 2.15625 9.386719 2.25 C 9.160156 2.34375 8.960938 2.476562 8.785156 2.652344 C 8.609375 2.824219 8.476562 3.023438 8.382812 3.25 C 8.289062 3.480469 8.242188 3.714844 8.242188 3.960938 L 8.242188 18.15625 C 8.242188 18.402344 8.289062 18.636719 8.382812 18.863281 C 8.476562 19.089844 8.609375 19.292969 8.785156 19.464844 C 8.960938 19.640625 9.160156 19.773438 9.386719 19.867188 C 9.613281 19.960938 9.851562 20.007812 10.097656 20.007812 L 15.933594 20.007812 L 15.347656 22.34375 L 14.078125 22.34375 L 14.078125 23.121094 L 23.414062 23.121094 L 23.414062 22.34375 L 22.164062 22.34375 L 21.578125 20.007812 L 27.414062 20.007812 C 27.660156 20.007812 27.898438 19.960938 28.125 19.867188 C 28.351562 19.773438 28.550781 19.636719 28.722656 19.464844 C 28.898438 19.289062 29.03125 19.089844 29.125 18.863281 C 29.21875 18.636719 29.265625 18.402344 29.269531 18.15625 L 29.269531 3.960938 C 29.265625 3.714844 29.21875 3.476562 29.125 3.25 C 29.027344 3.023438 28.894531 2.820312 28.71875 2.648438 C 28.542969 2.472656 28.339844 2.339844 28.113281 2.246094 C 27.882812 2.152344 27.648438 2.105469 27.398438 2.109375 Z M 21.359375 22.34375 L 16.132812 22.34375 L 16.714844 20.007812 L 20.777344 20.007812 Z M 28.472656 18.15625 C 28.472656 18.296875 28.445312 18.433594 28.390625 18.566406 C 28.335938 18.699219 28.257812 18.8125 28.160156 18.914062 C 28.058594 19.015625 27.941406 19.09375 27.808594 19.148438 C 27.679688 19.203125 27.542969 19.230469 27.398438 19.230469 L 10.097656 19.230469 C 9.953125 19.230469 9.816406 19.203125 9.683594 19.148438 C 9.554688 19.09375 9.4375 19.015625 9.335938 18.914062 C 9.234375 18.816406 9.15625 18.699219 9.101562 18.566406 C 9.046875 18.433594 9.019531 18.296875 9.019531 18.15625 L 9.019531 15.339844 L 21.859375 15.339844 L 21.859375 14.558594 L 9.019531 14.558594 L 9.019531 3.960938 C 9.019531 3.820312 9.046875 3.679688 9.101562 3.550781 C 9.15625 3.417969 9.234375 3.300781 9.335938 3.203125 C 9.4375 3.101562 9.554688 3.023438 9.683594 2.96875 C 9.816406 2.914062 9.953125 2.886719 10.097656 2.886719 L 27.398438 2.886719 C 27.542969 2.886719 27.679688 2.914062 27.808594 2.96875 C 27.941406 3.023438 28.058594 3.101562 28.160156 3.203125 C 28.257812 3.304688 28.335938 3.417969 28.390625 3.550781 C 28.445312 3.683594 28.472656 3.820312 28.472656 3.960938 Z M 17.96875 16.894531 L 19.523438 16.894531 L 19.523438 17.671875 L 17.96875 17.671875 Z M 15.132812 5.886719 L 12.296875 8.722656 L 15.136719 11.558594 L 14.585938 12.113281 L 11.472656 9 C 11.398438 8.925781 11.359375 8.832031 11.359375 8.722656 C 11.359375 8.617188 11.398438 8.523438 11.472656 8.449219 L 14.585938 5.335938 Z M 26.027344 9 L 22.914062 12.113281 L 22.363281 11.558594 L 25.203125 8.722656 L 22.363281 5.886719 L 22.914062 5.335938 L 26.027344 8.449219 C 26.101562 8.523438 26.140625 8.617188 26.140625 8.722656 C 26.140625 8.832031 26.101562 8.925781 26.027344 9 Z M 19.941406 4.6875 L 20.664062 4.976562 L 17.550781 12.757812 L 16.828125 12.472656 Z M 27.308594 14.949219 C 27.308594 15.164062 27.230469 15.347656 27.078125 15.5 C 26.925781 15.652344 26.742188 15.726562 26.527344 15.726562 C 26.3125 15.726562 26.128906 15.652344 25.976562 15.5 C 25.828125 15.347656 25.75 15.164062 25.75 14.949219 C 25.75 14.734375 25.828125 14.550781 25.976562 14.398438 C 26.128906 14.246094 26.3125 14.171875 26.527344 14.171875 C 26.742188 14.171875 26.925781 14.246094 27.078125 14.398438 C 27.230469 14.550781 27.308594 14.734375 27.308594 14.949219 Z M 24.972656 14.949219 C 24.972656 15.164062 24.894531 15.347656 24.742188 15.5 C 24.59375 15.652344 24.410156 15.726562 24.195312 15.726562 C 23.980469 15.726562 23.796875 15.652344 23.644531 15.5 C 23.492188 15.347656 23.414062 15.164062 23.414062 14.949219 C 23.414062 14.734375 23.492188 14.550781 23.644531 14.398438 C 23.796875 14.246094 23.980469 14.171875 24.195312 14.171875 C 24.410156 14.171875 24.59375 14.246094 24.742188 14.398438 C 24.894531 14.550781 24.972656 14.734375 24.972656 14.949219 Z M 24.972656 14.949219 " fill-opacity="1" fill-rule="nonzero"/></g><g fill="#ffffff" fill-opacity="1"><g transform="translate(7.842893, 30.582598)"><g><path d="M 4.625 -2.84375 C 4.71875 -2.84375 4.800781 -2.804688 4.875 -2.734375 C 4.945312 -2.660156 4.984375 -2.570312 4.984375 -2.46875 L 4.984375 -0.734375 C 4.984375 -0.597656 4.921875 -0.488281 4.796875 -0.40625 C 4.554688 -0.25 4.296875 -0.128906 4.015625 -0.046875 C 3.734375 0.0351562 3.441406 0.078125 3.140625 0.078125 C 2.617188 0.078125 2.144531 -0.046875 1.71875 -0.296875 C 1.289062 -0.546875 0.953125 -0.878906 0.703125 -1.296875 C 0.453125 -1.722656 0.328125 -2.191406 0.328125 -2.703125 C 0.328125 -3.210938 0.453125 -3.679688 0.703125 -4.109375 C 0.953125 -4.535156 1.289062 -4.867188 1.71875 -5.109375 C 2.144531 -5.359375 2.617188 -5.484375 3.140625 -5.484375 C 3.398438 -5.484375 3.648438 -5.457031 3.890625 -5.40625 C 4.128906 -5.351562 4.34375 -5.269531 4.53125 -5.15625 C 4.59375 -5.113281 4.640625 -5.066406 4.671875 -5.015625 C 4.703125 -4.960938 4.71875 -4.90625 4.71875 -4.84375 C 4.71875 -4.738281 4.679688 -4.648438 4.609375 -4.578125 C 4.546875 -4.503906 4.460938 -4.46875 4.359375 -4.46875 C 4.285156 -4.46875 4.21875 -4.488281 4.15625 -4.53125 C 3.820312 -4.675781 3.484375 -4.75 3.140625 -4.75 C 2.765625 -4.75 2.421875 -4.660156 2.109375 -4.484375 C 1.804688 -4.304688 1.566406 -4.054688 1.390625 -3.734375 C 1.210938 -3.421875 1.125 -3.078125 1.125 -2.703125 C 1.125 -2.328125 1.210938 -1.984375 1.390625 -1.671875 C 1.566406 -1.359375 1.804688 -1.109375 2.109375 -0.921875 C 2.421875 -0.742188 2.765625 -0.65625 3.140625 -0.65625 C 3.316406 -0.65625 3.5 -0.675781 3.6875 -0.71875 C 3.882812 -0.757812 4.050781 -0.8125 4.1875 -0.875 L 4.1875 -2.109375 L 3.25 -2.109375 C 3.144531 -2.109375 3.054688 -2.140625 2.984375 -2.203125 C 2.921875 -2.273438 2.890625 -2.363281 2.890625 -2.46875 C 2.890625 -2.582031 2.921875 -2.671875 2.984375 -2.734375 C 3.054688 -2.804688 3.144531 -2.84375 3.25 -2.84375 Z M 4.625 -2.84375 "/></g></g></g><g fill="#ffffff" fill-opacity="1"><g transform="translate(13.222889, 30.582598)"><g><path d="M 3.5625 -4.046875 C 3.675781 -4.046875 3.765625 -4.007812 3.828125 -3.9375 C 3.898438 -3.875 3.9375 -3.789062 3.9375 -3.6875 L 3.9375 -1.625 C 3.9375 -1.082031 3.785156 -0.664062 3.484375 -0.375 C 3.191406 -0.0820312 2.773438 0.0625 2.234375 0.0625 C 1.703125 0.0625 1.285156 -0.0820312 0.984375 -0.375 C 0.691406 -0.664062 0.546875 -1.082031 0.546875 -1.625 L 0.546875 -3.6875 C 0.546875 -3.789062 0.582031 -3.875 0.65625 -3.9375 C 0.726562 -4.007812 0.8125 -4.046875 0.90625 -4.046875 C 1.019531 -4.046875 1.109375 -4.007812 1.171875 -3.9375 C 1.242188 -3.875 1.28125 -3.789062 1.28125 -3.6875 L 1.28125 -1.625 C 1.28125 -0.945312 1.597656 -0.609375 2.234375 -0.609375 C 2.546875 -0.609375 2.785156 -0.691406 2.953125 -0.859375 C 3.117188 -1.035156 3.203125 -1.289062 3.203125 -1.625 L 3.203125 -3.6875 C 3.203125 -3.789062 3.234375 -3.875 3.296875 -3.9375 C 3.367188 -4.007812 3.457031 -4.046875 3.5625 -4.046875 Z M 3.5625 -4.046875 "/></g></g></g><g fill="#ffffff" fill-opacity="1"><g transform="translate(17.712669, 30.582598)"><g><path d="M 3.109375 -0.6875 C 3.210938 -0.6875 3.296875 -0.648438 3.359375 -0.578125 C 3.429688 -0.515625 3.46875 -0.4375 3.46875 -0.34375 C 3.46875 -0.238281 3.429688 -0.15625 3.359375 -0.09375 C 3.296875 -0.03125 3.210938 0 3.109375 0 L 0.625 0 C 0.519531 0 0.4375 -0.0351562 0.375 -0.109375 C 0.3125 -0.179688 0.28125 -0.253906 0.28125 -0.328125 C 0.28125 -0.398438 0.285156 -0.457031 0.296875 -0.5 C 0.316406 -0.539062 0.347656 -0.59375 0.390625 -0.65625 L 2.421875 -3.359375 L 0.75 -3.359375 C 0.644531 -3.359375 0.554688 -3.390625 0.484375 -3.453125 C 0.421875 -3.523438 0.390625 -3.609375 0.390625 -3.703125 C 0.390625 -3.804688 0.421875 -3.882812 0.484375 -3.9375 C 0.554688 -4 0.644531 -4.03125 0.75 -4.03125 L 3.109375 -4.03125 C 3.210938 -4.03125 3.296875 -3.992188 3.359375 -3.921875 C 3.421875 -3.859375 3.453125 -3.773438 3.453125 -3.671875 C 3.441406 -3.617188 3.429688 -3.570312 3.421875 -3.53125 C 3.410156 -3.488281 3.382812 -3.445312 3.34375 -3.40625 L 1.296875 -0.6875 Z M 3.109375 -0.6875 "/></g></g></g><g fill="#ffffff" fill-opacity="1"><g transform="translate(21.443832, 30.582598)"><g><path d="M 3.109375 -0.6875 C 3.210938 -0.6875 3.296875 -0.648438 3.359375 -0.578125 C 3.429688 -0.515625 3.46875 -0.4375 3.46875 -0.34375 C 3.46875 -0.238281 3.429688 -0.15625 3.359375 -0.09375 C 3.296875 -0.03125 3.210938 0 3.109375 0 L 0.625 0 C 0.519531 0 0.4375 -0.0351562 0.375 -0.109375 C 0.3125 -0.179688 0.28125 -0.253906 0.28125 -0.328125 C 0.28125 -0.398438 0.285156 -0.457031 0.296875 -0.5 C 0.316406 -0.539062 0.347656 -0.59375 0.390625 -0.65625 L 2.421875 -3.359375 L 0.75 -3.359375 C 0.644531 -3.359375 0.554688 -3.390625 0.484375 -3.453125 C 0.421875 -3.523438 0.390625 -3.609375 0.390625 -3.703125 C 0.390625 -3.804688 0.421875 -3.882812 0.484375 -3.9375 C 0.554688 -4 0.644531 -4.03125 0.75 -4.03125 L 3.109375 -4.03125 C 3.210938 -4.03125 3.296875 -3.992188 3.359375 -3.921875 C 3.421875 -3.859375 3.453125 -3.773438 3.453125 -3.671875 C 3.441406 -3.617188 3.429688 -3.570312 3.421875 -3.53125 C 3.410156 -3.488281 3.382812 -3.445312 3.34375 -3.40625 L 1.296875 -0.6875 Z M 3.109375 -0.6875 "/></g></g></g><g fill="#ffffff" fill-opacity="1"><g transform="translate(25.174995, 30.582598)"><g><path d="M 3.5625 -4.09375 C 3.675781 -4.09375 3.765625 -4.054688 3.828125 -3.984375 C 3.898438 -3.910156 3.9375 -3.820312 3.9375 -3.71875 L 3.9375 -0.375 C 3.9375 0.269531 3.757812 0.75 3.40625 1.0625 C 3.050781 1.382812 2.582031 1.546875 2 1.546875 C 1.800781 1.546875 1.609375 1.523438 1.421875 1.484375 C 1.242188 1.453125 1.09375 1.40625 0.96875 1.34375 C 0.78125 1.257812 0.6875 1.140625 0.6875 0.984375 C 0.6875 0.960938 0.691406 0.929688 0.703125 0.890625 C 0.734375 0.804688 0.773438 0.738281 0.828125 0.6875 C 0.890625 0.644531 0.957031 0.625 1.03125 0.625 C 1.070312 0.625 1.109375 0.628906 1.140625 0.640625 C 1.304688 0.710938 1.445312 0.769531 1.5625 0.8125 C 1.6875 0.851562 1.832031 0.875 2 0.875 C 2.800781 0.875 3.203125 0.460938 3.203125 -0.359375 L 3.203125 -0.515625 C 3.066406 -0.328125 2.882812 -0.179688 2.65625 -0.078125 C 2.4375 0.0234375 2.1875 0.078125 1.90625 0.078125 C 1.476562 0.078125 1.144531 -0.0546875 0.90625 -0.328125 C 0.664062 -0.609375 0.546875 -0.96875 0.546875 -1.40625 L 0.546875 -3.71875 C 0.546875 -3.820312 0.578125 -3.910156 0.640625 -3.984375 C 0.710938 -4.054688 0.800781 -4.09375 0.90625 -4.09375 C 1.019531 -4.09375 1.109375 -4.054688 1.171875 -3.984375 C 1.242188 -3.910156 1.28125 -3.820312 1.28125 -3.71875 L 1.28125 -1.59375 C 1.28125 -1.257812 1.351562 -1.007812 1.5 -0.84375 C 1.65625 -0.6875 1.882812 -0.609375 2.1875 -0.609375 C 2.476562 -0.609375 2.71875 -0.695312 2.90625 -0.875 C 3.101562 -1.0625 3.203125 -1.300781 3.203125 -1.59375 L 3.203125 -3.71875 C 3.203125 -3.820312 3.234375 -3.910156 3.296875 -3.984375 C 3.367188 -4.054688 3.457031 -4.09375 3.5625 -4.09375 Z M 3.5625 -4.09375 "/></g></g></g><g fill="#ffffff" fill-opacity="1"><g transform="translate(10.320838, 34.739153)"><g><path d="M 0.84375 0 L 0.625 0 L 0.625 -1.6875 L 0.015625 -1.6875 L 0.015625 -1.890625 L 1.4375 -1.890625 L 1.4375 -1.6875 L 0.84375 -1.6875 Z M 0.84375 0 "/></g></g></g><g fill="#ffffff" fill-opacity="1"><g transform="translate(12.090377, 34.739153)"><g><path d="M 0.828125 0.03125 C 0.617188 0.03125 0.453125 -0.03125 0.328125 -0.15625 C 0.203125 -0.289062 0.140625 -0.46875 0.140625 -0.6875 C 0.140625 -0.914062 0.195312 -1.097656 0.3125 -1.234375 C 0.425781 -1.367188 0.578125 -1.4375 0.765625 -1.4375 C 0.941406 -1.4375 1.082031 -1.378906 1.1875 -1.265625 C 1.289062 -1.148438 1.34375 -0.992188 1.34375 -0.796875 L 1.34375 -0.671875 L 0.375 -0.671875 C 0.375 -0.503906 0.410156 -0.375 0.484375 -0.28125 C 0.566406 -0.195312 0.679688 -0.15625 0.828125 -0.15625 C 0.984375 -0.15625 1.132812 -0.1875 1.28125 -0.25 L 1.28125 -0.0625 C 1.207031 -0.03125 1.132812 -0.0078125 1.0625 0 C 1 0.0195312 0.921875 0.03125 0.828125 0.03125 Z M 0.765625 -1.265625 C 0.648438 -1.265625 0.554688 -1.222656 0.484375 -1.140625 C 0.421875 -1.066406 0.382812 -0.96875 0.375 -0.84375 L 1.109375 -0.84375 C 1.109375 -0.976562 1.078125 -1.082031 1.015625 -1.15625 C 0.960938 -1.226562 0.878906 -1.265625 0.765625 -1.265625 Z M 0.765625 -1.265625 "/></g></g></g><g fill="#ffffff" fill-opacity="1"><g transform="translate(13.880603, 34.739153)"><g><path d="M 0.796875 0.03125 C 0.585938 0.03125 0.425781 -0.03125 0.3125 -0.15625 C 0.195312 -0.289062 0.140625 -0.472656 0.140625 -0.703125 C 0.140625 -0.929688 0.195312 -1.109375 0.3125 -1.234375 C 0.425781 -1.367188 0.59375 -1.4375 0.8125 -1.4375 C 0.875 -1.4375 0.9375 -1.425781 1 -1.40625 C 1.070312 -1.394531 1.128906 -1.378906 1.171875 -1.359375 L 1.109375 -1.1875 C 1.054688 -1.207031 1 -1.222656 0.9375 -1.234375 C 0.882812 -1.242188 0.835938 -1.25 0.796875 -1.25 C 0.515625 -1.25 0.375 -1.066406 0.375 -0.703125 C 0.375 -0.523438 0.40625 -0.390625 0.46875 -0.296875 C 0.539062 -0.203125 0.644531 -0.15625 0.78125 -0.15625 C 0.90625 -0.15625 1.03125 -0.179688 1.15625 -0.234375 L 1.15625 -0.046875 C 1.050781 0.00390625 0.929688 0.03125 0.796875 0.03125 Z M 0.796875 0.03125 "/></g></g></g><g fill="#ffffff" fill-opacity="1"><g transform="translate(15.445855, 34.739153)"><g><path d="M 1.1875 0 L 1.1875 -0.921875 C 1.1875 -1.035156 1.160156 -1.117188 1.109375 -1.171875 C 1.054688 -1.222656 0.976562 -1.25 0.875 -1.25 C 0.71875 -1.25 0.601562 -1.207031 0.53125 -1.125 C 0.46875 -1.050781 0.4375 -0.921875 0.4375 -0.734375 L 0.4375 0 L 0.234375 0 L 0.234375 -2 L 0.4375 -2 L 0.4375 -1.40625 C 0.4375 -1.332031 0.4375 -1.269531 0.4375 -1.21875 C 0.476562 -1.28125 0.535156 -1.332031 0.609375 -1.375 C 0.691406 -1.414062 0.785156 -1.4375 0.890625 -1.4375 C 1.066406 -1.4375 1.195312 -1.394531 1.28125 -1.3125 C 1.363281 -1.226562 1.40625 -1.097656 1.40625 -0.921875 L 1.40625 0 Z M 1.1875 0 "/></g></g></g><g fill="#ffffff" fill-opacity="1"><g transform="translate(17.375721, 34.739153)"><g><path d="M 1.1875 0 L 1.1875 -0.921875 C 1.1875 -1.035156 1.160156 -1.117188 1.109375 -1.171875 C 1.054688 -1.222656 0.976562 -1.25 0.875 -1.25 C 0.71875 -1.25 0.601562 -1.207031 0.53125 -1.125 C 0.46875 -1.050781 0.4375 -0.921875 0.4375 -0.734375 L 0.4375 0 L 0.234375 0 L 0.234375 -1.40625 L 0.40625 -1.40625 L 0.4375 -1.21875 L 0.453125 -1.21875 C 0.492188 -1.289062 0.550781 -1.34375 0.625 -1.375 C 0.707031 -1.414062 0.796875 -1.4375 0.890625 -1.4375 C 1.066406 -1.4375 1.195312 -1.394531 1.28125 -1.3125 C 1.363281 -1.226562 1.40625 -1.097656 1.40625 -0.921875 L 1.40625 0 Z M 1.1875 0 "/></g></g></g><g fill="#ffffff" fill-opacity="1"><g transform="translate(19.305587, 34.739153)"><g><path d="M 1.453125 -0.703125 C 1.453125 -0.472656 1.390625 -0.289062 1.265625 -0.15625 C 1.148438 -0.03125 0.992188 0.03125 0.796875 0.03125 C 0.671875 0.03125 0.554688 0 0.453125 -0.0625 C 0.359375 -0.125 0.28125 -0.207031 0.21875 -0.3125 C 0.164062 -0.425781 0.140625 -0.554688 0.140625 -0.703125 C 0.140625 -0.929688 0.195312 -1.109375 0.3125 -1.234375 C 0.4375 -1.367188 0.597656 -1.4375 0.796875 -1.4375 C 0.992188 -1.4375 1.148438 -1.367188 1.265625 -1.234375 C 1.390625 -1.109375 1.453125 -0.929688 1.453125 -0.703125 Z M 0.375 -0.703125 C 0.375 -0.523438 0.410156 -0.390625 0.484375 -0.296875 C 0.554688 -0.203125 0.660156 -0.15625 0.796875 -0.15625 C 0.929688 -0.15625 1.035156 -0.203125 1.109375 -0.296875 C 1.179688 -0.390625 1.21875 -0.523438 1.21875 -0.703125 C 1.21875 -0.890625 1.179688 -1.023438 1.109375 -1.109375 C 1.035156 -1.203125 0.929688 -1.25 0.796875 -1.25 C 0.648438 -1.25 0.539062 -1.203125 0.46875 -1.109375 C 0.40625 -1.023438 0.375 -0.890625 0.375 -0.703125 Z M 0.375 -0.703125 "/></g></g></g><g fill="#ffffff" fill-opacity="1"><g transform="translate(21.209593, 34.739153)"><g><path d="M 0.4375 0 L 0.234375 0 L 0.234375 -2 L 0.4375 -2 Z M 0.4375 0 "/></g></g></g><g fill="#ffffff" fill-opacity="1"><g transform="translate(22.183961, 34.739153)"><g><path d="M 1.453125 -0.703125 C 1.453125 -0.472656 1.390625 -0.289062 1.265625 -0.15625 C 1.148438 -0.03125 0.992188 0.03125 0.796875 0.03125 C 0.671875 0.03125 0.554688 0 0.453125 -0.0625 C 0.359375 -0.125 0.28125 -0.207031 0.21875 -0.3125 C 0.164062 -0.425781 0.140625 -0.554688 0.140625 -0.703125 C 0.140625 -0.929688 0.195312 -1.109375 0.3125 -1.234375 C 0.4375 -1.367188 0.597656 -1.4375 0.796875 -1.4375 C 0.992188 -1.4375 1.148438 -1.367188 1.265625 -1.234375 C 1.390625 -1.109375 1.453125 -0.929688 1.453125 -0.703125 Z M 0.375 -0.703125 C 0.375 -0.523438 0.410156 -0.390625 0.484375 -0.296875 C 0.554688 -0.203125 0.660156 -0.15625 0.796875 -0.15625 C 0.929688 -0.15625 1.035156 -0.203125 1.109375 -0.296875 C 1.179688 -0.390625 1.21875 -0.523438 1.21875 -0.703125 C 1.21875 -0.890625 1.179688 -1.023438 1.109375 -1.109375 C 1.035156 -1.203125 0.929688 -1.25 0.796875 -1.25 C 0.648438 -1.25 0.539062 -1.203125 0.46875 -1.109375 C 0.40625 -1.023438 0.375 -0.890625 0.375 -0.703125 Z M 0.375 -0.703125 "/></g></g></g><g fill="#ffffff" fill-opacity="1"><g transform="translate(24.087967, 34.739153)"><g><path d="M 1.390625 -1.40625 L 1.390625 -1.28125 L 1.125 -1.25 C 1.144531 -1.21875 1.164062 -1.175781 1.1875 -1.125 C 1.207031 -1.082031 1.21875 -1.03125 1.21875 -0.96875 C 1.21875 -0.820312 1.171875 -0.707031 1.078125 -0.625 C 0.984375 -0.550781 0.851562 -0.515625 0.6875 -0.515625 C 0.644531 -0.515625 0.601562 -0.515625 0.5625 -0.515625 C 0.46875 -0.472656 0.421875 -0.414062 0.421875 -0.34375 C 0.421875 -0.300781 0.4375 -0.269531 0.46875 -0.25 C 0.507812 -0.226562 0.566406 -0.21875 0.640625 -0.21875 L 0.890625 -0.21875 C 1.046875 -0.21875 1.160156 -0.1875 1.234375 -0.125 C 1.316406 -0.0625 1.359375 0.03125 1.359375 0.15625 C 1.359375 0.3125 1.296875 0.429688 1.171875 0.515625 C 1.046875 0.597656 0.863281 0.640625 0.625 0.640625 C 0.4375 0.640625 0.289062 0.601562 0.1875 0.53125 C 0.09375 0.457031 0.046875 0.359375 0.046875 0.234375 C 0.046875 0.148438 0.0703125 0.078125 0.125 0.015625 C 0.1875 -0.046875 0.265625 -0.0859375 0.359375 -0.109375 C 0.328125 -0.128906 0.296875 -0.15625 0.265625 -0.1875 C 0.242188 -0.21875 0.234375 -0.257812 0.234375 -0.3125 C 0.234375 -0.363281 0.242188 -0.40625 0.265625 -0.4375 C 0.296875 -0.476562 0.34375 -0.515625 0.40625 -0.546875 C 0.332031 -0.578125 0.269531 -0.628906 0.21875 -0.703125 C 0.175781 -0.773438 0.15625 -0.859375 0.15625 -0.953125 C 0.15625 -1.109375 0.203125 -1.226562 0.296875 -1.3125 C 0.390625 -1.394531 0.519531 -1.4375 0.6875 -1.4375 C 0.769531 -1.4375 0.835938 -1.425781 0.890625 -1.40625 Z M 0.25 0.234375 C 0.25 0.316406 0.28125 0.375 0.34375 0.40625 C 0.414062 0.445312 0.507812 0.46875 0.625 0.46875 C 0.8125 0.46875 0.945312 0.441406 1.03125 0.390625 C 1.113281 0.335938 1.15625 0.265625 1.15625 0.171875 C 1.15625 0.0976562 1.128906 0.046875 1.078125 0.015625 C 1.035156 -0.015625 0.953125 -0.03125 0.828125 -0.03125 L 0.5625 -0.03125 C 0.46875 -0.03125 0.390625 -0.0078125 0.328125 0.03125 C 0.273438 0.0820312 0.25 0.148438 0.25 0.234375 Z M 0.375 -0.953125 C 0.375 -0.859375 0.398438 -0.785156 0.453125 -0.734375 C 0.515625 -0.679688 0.59375 -0.65625 0.6875 -0.65625 C 0.894531 -0.65625 1 -0.757812 1 -0.96875 C 1 -1.175781 0.894531 -1.28125 0.6875 -1.28125 C 0.582031 -1.28125 0.503906 -1.253906 0.453125 -1.203125 C 0.398438 -1.148438 0.375 -1.066406 0.375 -0.953125 Z M 0.375 -0.953125 "/></g></g></g><g fill="#ffffff" fill-opacity="1"><g transform="translate(25.843282, 34.739153)"><g><path d="M 0 -1.40625 L 0.234375 -1.40625 L 0.546875 -0.609375 C 0.609375 -0.421875 0.648438 -0.285156 0.671875 -0.203125 C 0.679688 -0.253906 0.703125 -0.332031 0.734375 -0.4375 C 0.773438 -0.539062 0.894531 -0.863281 1.09375 -1.40625 L 1.328125 -1.40625 L 0.71875 0.203125 C 0.65625 0.359375 0.582031 0.46875 0.5 0.53125 C 0.425781 0.601562 0.332031 0.640625 0.21875 0.640625 C 0.144531 0.640625 0.078125 0.628906 0.015625 0.609375 L 0.015625 0.4375 C 0.0664062 0.445312 0.117188 0.453125 0.171875 0.453125 C 0.328125 0.453125 0.4375 0.367188 0.5 0.203125 L 0.578125 0 Z M 0 -1.40625 "/></g></g></g></svg>